<svg width="117" height="112" viewBox="0 0 117 112" fill="none" xmlns="http://www.w3.org/2000/svg">
<path d="M98 30.5V11C98 6.02944 93.9706 2 89 2H11C6.02944 2 2 6.02944 2 11V43.7754C2 46.9836 4.60075 49.5844 7.80893 49.5844V49.5844C10.3851 49.5844 12.644 51.2892 13.6441 53.6632C15.4867 58.0372 18.9148 64.1827 23.2308 62.8022C25.0092 62.2334 26.1678 60.6332 26.9216 58.7336C28.7985 54.0038 32.5254 49.5844 37.614 49.5844L57.5 49.5844" stroke="black" stroke-width="3"/>
<path d="M57.5 38C57.5 33.8579 60.8579 30.5 65 30.5H108C112.142 30.5 115.5 33.8579 115.5 38V55.1032C115.5 59.2453 112.142 62.6032 108 62.6032H81.9796C78.8829 62.6032 76.5349 64.1639 74.6309 66.0349C73.6807 66.9687 72.8052 68.0149 71.9818 69.0351C71.7541 69.3173 71.5317 69.5956 71.3125 69.87C70.7219 70.6094 70.154 71.3203 69.5651 72.0005C69.3532 72.2452 69.1535 72.3791 68.9682 72.4479C68.7432 72.5315 68.5373 72.5244 68.2337 72.3499C67.876 72.1443 67.4459 71.7291 66.9783 71.0677C66.0473 69.751 65.2595 67.8838 64.701 66.2986C63.96 64.1956 61.9899 62.6032 59.6287 62.6032C58.4531 62.6032 57.5 61.6501 57.5 60.4745V38Z" stroke="black" stroke-width="3"/>
<path d="M35.5 103C35.5 107.142 38.8579 110.5 43 110.5H86C90.1421 110.5 93.5 107.142 93.5 103V85.8968C93.5 81.7547 90.1421 78.3968 86 78.3968H59.9796C56.8829 78.3968 54.5349 76.8361 52.6309 74.9651C51.6807 74.0313 50.8052 72.9851 49.9818 71.9649C49.7541 71.6827 49.5317 71.4044 49.3125 71.13C48.7219 70.3906 48.154 69.6797 47.5651 68.9995C47.3532 68.7548 47.1535 68.6209 46.9682 68.5521C46.7432 68.4685 46.5373 68.4756 46.2337 68.6501C45.876 68.8557 45.4459 69.2709 44.9783 69.9323C44.0473 71.249 43.2595 73.1162 42.701 74.7014C41.96 76.8044 39.9899 78.3968 37.6287 78.3968C36.4531 78.3968 35.5 79.3499 35.5 80.5255V103Z" stroke="black" stroke-width="3"/>
<rect x="22" y="15" width="64" height="2" rx="1" stroke="black" stroke-width="2"/>
<rect x="66.75" y="49.75" width="40.5" height="1.5" rx="0.75" stroke="black" stroke-width="1.5"/>
<rect x="0.75" y="-0.75" width="40.5" height="1.5" rx="0.75" transform="matrix(1 0 0 -1 44.0107 90.4946)" stroke="black" stroke-width="1.5"/>
<rect x="10" y="30" width="40" height="2" rx="1" stroke="black" stroke-width="2"/>
<rect x="81.75" y="39.75" width="25.5" height="1.5" rx="0.75" stroke="black" stroke-width="1.5"/>
<rect x="0.75" y="-0.75" width="25.5" height="1.5" rx="0.75" transform="matrix(1 0 0 -1 59.1182 100.414)" stroke="black" stroke-width="1.5"/>
<rect x="3.5" y="68.5" width="25" height="33" rx="2.5" stroke="black" stroke-width="3"/>
<rect x="11" y="94" width="10" height="3" rx="1.5" fill="#292D32"/>
</svg>
