<svg width="168" height="119" viewBox="0 0 168 119" fill="none" xmlns="http://www.w3.org/2000/svg">
<path d="M2 65L83.7563 3L166 65" stroke="#01497C" stroke-width="4"/>
<path fill-rule="evenodd" clip-rule="evenodd" d="M83.1548 17.9732C83.5124 17.7014 84.0074 17.7014 84.3651 17.9733L142.576 62.2274C141.937 62.5614 141.501 63.2303 141.501 64.0011V115.001H98.4998V76.5001C98.4998 75.3955 97.6043 74.5001 96.4998 74.5001H70.5007C69.3962 74.5001 68.5007 75.3955 68.5007 76.5001V115.001H27.0007V64.0011C27.0007 62.9677 26.2171 62.1175 25.2117 62.0121L83.1548 17.9732ZM23.0277 63.672L17.2104 68.0933L14.79 64.9087L80.7343 14.7886C82.5226 13.4294 84.9978 13.4296 86.7859 14.789L152.711 64.9079L150.29 68.0922L145.501 64.4513V117.001C145.501 118.106 144.605 119.001 143.501 119.001H96.4998C95.3952 119.001 94.4998 118.106 94.4998 117.001V78.5001H72.5007V117.001C72.5007 118.106 71.6053 119.001 70.5007 119.001H25.0007C23.8962 119.001 23.0007 118.106 23.0007 117.001V64.0011C23.0007 63.889 23.01 63.779 23.0277 63.672Z" fill="#C09247"/>
</svg>
