<svg width="168" height="119" viewBox="0 0 168 119" fill="none" xmlns="http://www.w3.org/2000/svg">
<path d="M2 65L83.7563 3L166 65" stroke="#020202" stroke-width="4"/>
<path fill-rule="evenodd" clip-rule="evenodd" d="M84.9705 13.4089L83.7603 12.4888L82.5499 13.4087L14.79 64.9087L17.2104 68.0933L23.0277 63.672C23.01 63.779 23.0007 63.889 23.0007 64.0011V117.001C23.0007 118.106 23.8962 119.001 25.0007 119.001H70.5007C71.6053 119.001 72.5007 118.106 72.5007 117.001V78.5001H94.4998V117.001C94.4998 118.106 95.3952 119.001 96.4998 119.001H143.501C144.605 119.001 145.501 118.106 145.501 117.001V64.4513L150.29 68.0922L152.711 64.9079L84.9705 13.4089ZM142.576 62.2274L83.7599 17.5132L25.2117 62.0121C26.2171 62.1175 27.0007 62.9677 27.0007 64.0011V115.001H68.5007V76.5001C68.5007 75.3955 69.3962 74.5001 70.5007 74.5001H96.4998C97.6043 74.5001 98.4998 75.3955 98.4998 76.5001V115.001H141.501V64.0011C141.501 63.2303 141.937 62.5614 142.576 62.2274Z" fill="#020202"/>
</svg>
