<svg width="33" height="41" viewBox="0 0 33 41" fill="none" xmlns="http://www.w3.org/2000/svg">
<path d="M21 19V17H12V19H14.8636C15.9289 19 16.8281 19.838 17.1668 21H12V23H17.1668C16.9989 23.5832 16.6873 24.0886 16.2749 24.4467C15.8625 24.8048 15.3695 24.9981 14.8636 25H12V27.414L16.5704 33H18.8842L13.9751 27H14.8636C15.8061 26.9985 16.7194 26.5998 17.4494 25.8711C18.1794 25.1424 18.6815 24.1284 18.8711 23H21V21H18.8711C18.7457 20.2722 18.4872 19.5885 18.1151 19H21Z" fill="#292D32"/>
<path d="M21.4734 8H11.8544L7.32775 4.05223C7.32775 4.05223 6.85536 3.22985 7.04484 2.7363C7.20249 2.32565 7.47144 2.13633 7.89357 1.94675C8.71405 1.57828 9.24619 2.49786 10.1569 2.47312C10.72 2.45782 11.0544 2.41811 11.5714 2.20994C12.2207 1.94852 12.3017 1.32417 12.986 1.1572C13.4135 1.05289 13.684 1.07809 14.1177 1.1572C15.0503 1.32732 15.1593 2.33523 16.098 2.47312C16.4254 2.52121 16.6279 2.55709 16.9468 2.47312C17.6275 2.2939 17.4361 1.43298 18.0784 1.1572C18.6803 0.898771 19.1341 1.00279 19.7759 1.1572C20.6961 1.37857 21.7563 2.47312 21.7563 2.47312C21.7563 2.47312 22.622 2.53114 23.1709 2.47312C23.9701 2.38864 24.4276 1.62021 25.1513 1.94675C25.6483 2.17102 26 2.99949 26 2.99949L21.4734 8Z" stroke="black" stroke-width="2"/>
<path d="M8.85144 14.0886C9.33805 13.6174 10.1787 12.3233 10.817 11.4635C10.9818 11.2416 11.2356 11.1073 11.5115 11.0907C14.5532 10.907 19.6005 11.0506 21.1816 11.1029C21.4907 11.1131 21.7756 11.2663 21.9645 11.5112C22.353 12.0148 23.1149 12.9606 24.1788 14.0886C25.2935 15.2705 26.4882 16.225 27.5228 17.3272C30.2038 20.1833 31.0794 22.5397 31.142 22.7144C31.1447 22.7221 31.1465 22.7275 31.149 22.7353C31.2034 22.9091 31.9136 25.2011 31.9817 26.773C32.0658 28.7147 31.8724 29.841 31.1456 31.6308C29.9879 34.482 28.4858 35.8728 25.8508 37.5682C22.9453 39.4377 17.3517 39.9602 16.9554 39.9952C16.9392 39.9966 16.9264 39.9973 16.9102 39.9977C16.4096 40.0099 7.81989 40.1364 3.55649 34.5995C1.80473 32.3245 1.25087 30.6836 1.04821 27.8525C0.838264 24.9198 1.29941 23.1357 2.72023 20.5658C3.91389 18.4067 5.22834 17.2925 5.78597 16.7874C6.3436 16.2824 8.29408 14.6284 8.85144 14.0886Z" stroke="black" stroke-width="2"/>
</svg>
