<svg width="113" height="104" viewBox="0 0 113 104" fill="none" xmlns="http://www.w3.org/2000/svg">
<path d="M54.0004 98C79.9578 98 101 76.5097 101 50C101 23.4903 79.9578 2 54.0004 2C33.5363 2 16.1269 15.3569 9.6748 34" stroke="black" stroke-width="4"/>
<circle cx="53" cy="98" r="6" fill="black"/>
<path d="M0 40C0 35.5817 3.58172 32 8 32H12V66H8C3.58172 66 0 62.4183 0 58V40Z" fill="black"/>
<path d="M113 40C113 35.5817 109.418 32 105 32H99V66H105C109.418 66 113 62.4183 113 58V40Z" fill="black"/>
<circle cx="55" cy="50" r="34" fill="#292D32"/>
<path d="M43.918 56H35.026V53.534L38.896 50.222C39.244 49.922 39.538 49.652 39.778 49.412C40.018 49.16 40.21 48.92 40.354 48.692C40.51 48.452 40.618 48.218 40.678 47.99C40.75 47.762 40.786 47.516 40.786 47.252V47C40.786 46.76 40.738 46.55 40.642 46.37C40.546 46.19 40.42 46.04 40.264 45.92C40.108 45.8 39.928 45.71 39.724 45.65C39.532 45.59 39.334 45.56 39.13 45.56C38.83 45.56 38.566 45.608 38.338 45.704C38.122 45.8 37.93 45.932 37.762 46.1C37.606 46.256 37.474 46.442 37.366 46.658C37.258 46.862 37.174 47.084 37.114 47.324L34.756 46.424C34.9 45.992 35.098 45.584 35.35 45.2C35.602 44.804 35.914 44.462 36.286 44.174C36.67 43.874 37.12 43.64 37.636 43.472C38.152 43.304 38.734 43.22 39.382 43.22C40.066 43.22 40.672 43.316 41.2 43.508C41.728 43.7 42.172 43.964 42.532 44.3C42.904 44.636 43.186 45.038 43.378 45.506C43.57 45.962 43.666 46.46 43.666 47C43.666 47.54 43.576 48.032 43.396 48.476C43.216 48.92 42.97 49.34 42.658 49.736C42.358 50.12 42.004 50.486 41.596 50.834C41.188 51.182 40.762 51.536 40.318 51.896L37.978 53.732H43.918V56ZM50.859 56V53.588H45.333V51.284L50.229 43.436H53.433V51.5H55.017V53.588H53.433V56H50.859ZM47.493 51.5H50.859V46.226H50.679L47.493 51.5ZM55.6399 58.718L61.0039 42.68H63.1999L57.8359 58.718H55.6399ZM66.8532 56L71.0652 45.632H67.1412V47.918H64.8552V43.436H73.7472V45.776L69.6972 56H66.8532Z" fill="white"/>
</svg>
