<svg width="49" height="48" viewBox="0 0 49 48" fill="none" xmlns="http://www.w3.org/2000/svg">
<path d="M22.6824 31.8661C21.3702 30.8546 19.4864 31.0984 18.4749 32.4107C17.4634 33.7229 17.7072 35.6067 19.0194 36.6182C20.3317 37.6297 22.2155 37.3859 23.227 36.0736C24.2385 34.7614 23.9947 32.8776 22.6824 31.8661Z" stroke="#01497C" stroke-width="1.5" stroke-miterlimit="10" stroke-linecap="round" stroke-linejoin="round"/>
<path d="M15.781 11.5761C14.4688 10.5646 12.585 10.8084 11.5735 12.1206C10.562 13.4329 10.8058 15.3167 12.1181 16.3282C13.4303 17.3397 15.3141 17.0959 16.3256 15.7836C17.3371 14.4713 17.0933 12.5876 15.781 11.5761Z" stroke="#292D32" stroke-width="1.5" stroke-miterlimit="10" stroke-linecap="round" stroke-linejoin="round"/>
<path d="M36.6326 15.9374C35.3203 14.9259 33.4366 15.1697 32.4251 16.482C31.4136 17.7942 31.6574 19.678 32.9696 20.6895C34.2819 21.701 36.1657 21.4572 37.1772 20.1449C38.1887 18.8327 37.9449 16.9489 36.6326 15.9374Z" stroke="#C09247" stroke-width="1.5" stroke-miterlimit="10" stroke-linecap="round" stroke-linejoin="round"/>
<path d="M29.1063 39.5723L28.0318 40.9663C27.3969 41.79 26.1986 41.9522 25.367 41.3112C23.9335 40.2062 22.5659 40.7682 22.3282 42.5672C22.1906 43.5975 21.2308 44.3349 20.1926 44.1912L18.218 43.9192C17.3054 43.8091 16.6685 42.9647 16.7785 42.052L16.8074 41.8344C17.053 40.0415 15.8809 39.1379 14.2016 39.8259L13.9985 39.9092C13.144 40.248 12.1652 39.847 11.8264 38.9925L11.0606 37.1522C10.6573 36.1848 11.1261 35.0689 12.0874 34.6735C13.7666 33.9856 13.9619 32.5201 12.5284 31.4151C11.7047 30.7802 11.5425 29.5819 12.1835 28.7503L13.2579 27.3563C13.8929 26.5326 15.0911 26.3704 15.9227 27.0114C17.3563 28.1164 18.7238 27.5544 18.9615 25.7554C19.1052 24.7172 20.0589 23.9877 21.0971 24.1314L23.0717 24.4035C23.9844 24.5135 24.6213 25.358 24.5112 26.2706L24.4824 26.4882C24.2367 28.2812 25.4089 29.1847 27.0881 28.4968L27.2912 28.4134C28.1458 28.0747 29.1246 28.4756 29.4633 29.3302L30.2291 31.1704C30.6324 32.1378 30.1637 33.2537 29.2024 33.6491C27.5232 34.337 27.3278 35.8026 28.7614 36.9076C29.593 37.5486 29.7412 38.7486 29.1063 39.5723Z" stroke="#01497C" stroke-width="1.5" stroke-miterlimit="10" stroke-linecap="round" stroke-linejoin="round"/>
<path d="M22.203 19.2818L21.1285 20.6758C20.4936 21.4995 19.2953 21.6617 18.4637 21.0207C17.0301 19.9157 15.6626 20.4777 15.4249 22.2767C15.2873 23.307 14.3275 24.0444 13.2893 23.9007L11.3147 23.6286C10.4021 23.5186 9.76515 22.6741 9.87519 21.7615L9.90406 21.5439C10.1497 19.7509 8.97753 18.8474 7.29832 19.5353L7.0952 19.6187C6.24066 19.9574 5.26186 19.5565 4.92309 18.702L4.15729 16.8617C3.75401 15.8943 4.22276 14.7784 5.18406 14.383C6.86327 13.6951 7.05861 12.2295 5.62505 11.1245C4.80135 10.4896 4.63913 9.29139 5.28015 8.45977L6.35462 7.06581C6.98954 6.24211 8.18778 6.0799 9.0194 6.72091C10.453 7.82591 11.8205 7.26389 12.0582 5.46487C12.2019 4.42667 13.1556 3.69718 14.1938 3.84088L16.1684 4.11293C17.081 4.22298 17.718 5.06745 17.6079 5.98007L17.579 6.19771C17.3334 7.99063 18.5056 8.89416 20.1848 8.20624L20.3879 8.12291C21.2424 7.78415 22.2212 8.18509 22.56 9.03963L23.3258 10.8799C23.7291 11.8473 23.2603 12.9632 22.299 13.3586C20.6198 14.0465 20.4245 15.512 21.8581 16.617C22.6897 17.258 22.8379 18.4581 22.203 19.2818Z" stroke="#292D32" stroke-width="1.5" stroke-miterlimit="10" stroke-linecap="round" stroke-linejoin="round"/>
<path d="M43.0555 23.6431L41.981 25.0371C41.3461 25.8608 40.1479 26.023 39.3162 25.382C37.8827 24.277 36.5152 24.839 36.2774 26.638C36.1398 27.6683 35.18 28.4057 34.1418 28.262L32.1672 27.99C31.2546 27.8799 30.6177 27.0355 30.7277 26.1228L30.7566 25.9052C31.0023 24.1123 29.8301 23.2087 28.1509 23.8967L27.9477 23.98C27.0932 24.3188 26.1144 23.9178 25.7756 23.0633L25.0098 21.223C24.6065 20.2556 25.0753 19.1397 26.0366 18.7443C27.7158 18.0564 27.9111 16.5909 26.4776 15.4859C25.6539 14.851 25.4917 13.6527 26.1327 12.8211L27.2072 11.4271C27.8421 10.6034 29.0403 10.4412 29.8719 11.0822C31.3055 12.1872 32.673 11.6252 32.9108 9.8262C33.0545 8.788 34.0082 8.05851 35.0464 8.20221L37.0209 8.47426C37.9336 8.5843 38.5705 9.42877 38.4605 10.3414L38.4316 10.559C38.1859 12.352 39.3581 13.2555 41.0373 12.5676L41.2404 12.4842C42.095 12.1455 43.0738 12.5464 43.4125 13.401L44.1784 15.2412C44.5816 16.2086 44.1129 17.3245 43.1516 17.7199C41.4724 18.4078 41.277 19.8734 42.7106 20.9784C43.5422 21.6194 43.6904 22.8194 43.0555 23.6431Z" stroke="#C09247" stroke-width="1.5" stroke-miterlimit="10" stroke-linecap="round" stroke-linejoin="round"/>
</svg>
